<svg version="1.1" xmlns="http://www.w3.org/2000/svg" xmlns:xlink="http://www.w3.org/1999/xlink" x="0px" y="0px" viewBox="0 0 100 34" style="enable-background:new 0 0 100 34;" xml:space="preserve">
	<style type="text/css">
		.st0{fill:#FEFEFE;}
	</style>
	<g class="logo-text">
		<path class="st0" d="M54.7,17.3c0,0,2.3-1.3,2.3-4.2c0-2.7-2.6-5.3-6.5-5.3h-8.8v20.1h9.4c4.2,0,7-2.8,7-5.9
			C58.1,18.6,54.7,17.3,54.7,17.3z M46.2,11.5c0-0.1,4.1-0.1,4.1-0.1c1.5,0,2.3,0.9,2.3,2.2s-0.9,2.2-2.3,2.2h-4.1V11.5z M50.9,24.3
			h-4.7v-5.2h4.7c1.6,0,2.8,1.1,2.8,2.6C53.7,23.1,52.5,24.3,50.9,24.3z"/>
		<path class="st0" d="M68.3,27.9h3.8V13.8h-3.8v7.5c0,2.2-1.1,3.3-2.8,3.3c-1.6,0-2.7-1.1-2.7-2.7v-8H59v8.4c0,3.6,2.3,5.9,5.4,5.9
			c2.6,0,4-1.7,4-1.7L68.3,27.9L68.3,27.9z"/>
		<path class="st0" d="M72.8,20.8c0,3.9,3.4,7.3,7.5,7.3c3.8,0,5.7-2.9,5.7-2.9l-2.3-2.4c0,0-1.3,1.9-3.4,1.9c-2,0-3.7-1.7-3.7-3.9
			s1.7-3.9,3.7-3.9c2.1,0,3.3,1.9,3.3,1.9l2.4-2.4c0,0-1.9-2.9-5.7-2.9C76.2,13.5,72.8,17,72.8,20.8L72.8,20.8z"/>
		<path class="st0" d="M92,22.4l3.7,5.5h4.3l-5.6-8l5.3-6h-4.4l-5,5.7V7.8h-3.8v20.1h3.8v-3.4C90.3,24.4,92,22.4,92,22.4z"/>
	</g>
	<g class="logo-icon">
		<path class="st0" d="M30.7,6.9C27.6,2.7,22.6,0,17,0C7.6,0,0,7.6,0,17c0,3.8,1.2,7.3,3.3,10.1L30.7,6.9z"/>
		<path class="st0" d="M3.3,27.1C6.4,31.3,11.4,34,17,34s10.6-2.7,13.7-6.9C30.7,27.1,3.3,27.1,3.3,27.1z"/>
		<path class="st0" d="M30.7,27.1C32.9,24.2,34,20.6,34,17s-1.2-7.2-3.3-10.1C30.7,6.9,30.7,27.1,30.7,27.1z"/>
	</g>
</svg>
