<svg width="34" height="34" viewBox="0 0 34 34" fill="none" xmlns="http://www.w3.org/2000/svg">
<g clipPath="url(#clip0_222_78)">
<path fill-rule="evenodd" clip-rule="evenodd" d="M16.9779 33.9417C26.3114 33.9417 33.948 26.3174 33.948 16.9987C33.948 7.68003 26.3114 0.0556641 16.9779 0.0556641C7.64435 0.0556641 0.0078125 7.68003 0.0078125 16.9987C0.0078125 26.3174 7.64435 33.9417 16.9779 33.9417ZM16.9779 31.718C25.1447 31.718 31.7207 25.1526 31.7207 16.9987C31.7207 8.84485 25.1447 2.27944 16.9779 2.27944C8.81104 2.27944 2.23514 8.84485 2.23514 16.9987C2.23514 25.1526 8.81104 31.718 16.9779 31.718Z" fill="black"/>
<path d="M16.9779 5.13818C10.296 5.13818 4.88672 10.5388 4.88672 17.2101C4.88672 23.8814 4.88672 17.5278 4.88672 17.6337H29.0691C29.0691 17.5278 29.0691 17.316 29.0691 17.2101C29.0691 10.5388 23.6599 5.13818 16.9779 5.13818Z" fill="black"/>
<path d="M5.09863 19.4341C5.20469 20.0694 5.41682 20.7048 5.62895 21.3402H28.2203C28.4325 20.7048 28.6446 20.0694 28.7506 19.4341H5.09863Z" fill="black"/>
<path d="M7.96229 25.1522C7.43198 24.5169 7.00775 23.8815 6.5835 23.2461H27.3719C26.9476 23.8815 26.5234 24.5169 25.993 25.1522H7.96229Z" fill="black"/>
<path d="M10.0835 27.0586C11.9926 28.4352 14.4321 29.1765 16.9776 29.1765C19.5231 29.1765 21.9626 28.3293 23.8717 27.0586H10.0835Z" fill="black"/>
</g>
<defs>
<clipPath id="clip0_222_78">
<rect width="34" height="34" fill="white"/>
</clipPath>
</defs>
</svg>
